<mxfile host="app.diagrams.net" modified="2023-07-06T16:42:03.073Z" agent="Mozilla/5.0 (Macintosh; Intel Mac OS X 10_15_7) AppleWebKit/537.36 (KHTML, like Gecko) Chrome/114.0.0.0 Safari/537.36" etag="8wnaO8Qhn_mELP6iQXyY" version="21.2.0" type="device">
  <diagram id="C5RBs43oDa-KdzZeNtuy" name="Page-1">
    <mxGraphModel dx="2776" dy="651" grid="1" gridSize="10" guides="1" tooltips="1" connect="1" arrows="1" fold="1" page="1" pageScale="1" pageWidth="827" pageHeight="1169" math="0" shadow="0">
      <root>
        <mxCell id="WIyWlLk6GJQsqaUBKTNV-0" />
        <mxCell id="WIyWlLk6GJQsqaUBKTNV-1" parent="WIyWlLk6GJQsqaUBKTNV-0" />
        <mxCell id="EALIwOnRLja3VpjPiaSM-13" style="edgeStyle=orthogonalEdgeStyle;rounded=0;orthogonalLoop=1;jettySize=auto;html=1;entryX=0.5;entryY=0;entryDx=0;entryDy=0;" edge="1" parent="WIyWlLk6GJQsqaUBKTNV-1" source="EALIwOnRLja3VpjPiaSM-1" target="EALIwOnRLja3VpjPiaSM-7">
          <mxGeometry relative="1" as="geometry" />
        </mxCell>
        <mxCell id="EALIwOnRLja3VpjPiaSM-14" style="edgeStyle=orthogonalEdgeStyle;rounded=0;orthogonalLoop=1;jettySize=auto;html=1;entryX=0.415;entryY=-0.007;entryDx=0;entryDy=0;entryPerimeter=0;" edge="1" parent="WIyWlLk6GJQsqaUBKTNV-1" source="EALIwOnRLja3VpjPiaSM-1" target="EALIwOnRLja3VpjPiaSM-5">
          <mxGeometry relative="1" as="geometry" />
        </mxCell>
        <mxCell id="EALIwOnRLja3VpjPiaSM-15" style="edgeStyle=orthogonalEdgeStyle;rounded=0;orthogonalLoop=1;jettySize=auto;html=1;" edge="1" parent="WIyWlLk6GJQsqaUBKTNV-1" source="EALIwOnRLja3VpjPiaSM-1" target="EALIwOnRLja3VpjPiaSM-4">
          <mxGeometry relative="1" as="geometry" />
        </mxCell>
        <mxCell id="EALIwOnRLja3VpjPiaSM-16" style="edgeStyle=orthogonalEdgeStyle;rounded=0;orthogonalLoop=1;jettySize=auto;html=1;" edge="1" parent="WIyWlLk6GJQsqaUBKTNV-1" source="EALIwOnRLja3VpjPiaSM-1" target="EALIwOnRLja3VpjPiaSM-3">
          <mxGeometry relative="1" as="geometry" />
        </mxCell>
        <mxCell id="EALIwOnRLja3VpjPiaSM-49" style="edgeStyle=orthogonalEdgeStyle;rounded=0;orthogonalLoop=1;jettySize=auto;html=1;entryX=0.5;entryY=0;entryDx=0;entryDy=0;" edge="1" parent="WIyWlLk6GJQsqaUBKTNV-1" source="EALIwOnRLja3VpjPiaSM-1" target="EALIwOnRLja3VpjPiaSM-6">
          <mxGeometry relative="1" as="geometry" />
        </mxCell>
        <mxCell id="EALIwOnRLja3VpjPiaSM-52" style="edgeStyle=orthogonalEdgeStyle;rounded=0;orthogonalLoop=1;jettySize=auto;html=1;entryX=0.5;entryY=0;entryDx=0;entryDy=0;" edge="1" parent="WIyWlLk6GJQsqaUBKTNV-1" source="EALIwOnRLja3VpjPiaSM-1" target="EALIwOnRLja3VpjPiaSM-2">
          <mxGeometry relative="1" as="geometry" />
        </mxCell>
        <mxCell id="EALIwOnRLja3VpjPiaSM-1" value="App Component" style="rounded=1;whiteSpace=wrap;html=1;" vertex="1" parent="WIyWlLk6GJQsqaUBKTNV-1">
          <mxGeometry x="380" width="120" height="60" as="geometry" />
        </mxCell>
        <mxCell id="EALIwOnRLja3VpjPiaSM-53" style="edgeStyle=orthogonalEdgeStyle;rounded=0;orthogonalLoop=1;jettySize=auto;html=1;entryX=0.5;entryY=0;entryDx=0;entryDy=0;" edge="1" parent="WIyWlLk6GJQsqaUBKTNV-1" source="EALIwOnRLja3VpjPiaSM-2" target="EALIwOnRLja3VpjPiaSM-17">
          <mxGeometry relative="1" as="geometry" />
        </mxCell>
        <mxCell id="EALIwOnRLja3VpjPiaSM-54" style="edgeStyle=orthogonalEdgeStyle;rounded=0;orthogonalLoop=1;jettySize=auto;html=1;" edge="1" parent="WIyWlLk6GJQsqaUBKTNV-1" source="EALIwOnRLja3VpjPiaSM-2" target="EALIwOnRLja3VpjPiaSM-18">
          <mxGeometry relative="1" as="geometry" />
        </mxCell>
        <mxCell id="EALIwOnRLja3VpjPiaSM-55" style="edgeStyle=orthogonalEdgeStyle;rounded=0;orthogonalLoop=1;jettySize=auto;html=1;entryX=0.5;entryY=0;entryDx=0;entryDy=0;" edge="1" parent="WIyWlLk6GJQsqaUBKTNV-1" source="EALIwOnRLja3VpjPiaSM-2" target="EALIwOnRLja3VpjPiaSM-20">
          <mxGeometry relative="1" as="geometry" />
        </mxCell>
        <mxCell id="EALIwOnRLja3VpjPiaSM-2" value="header" style="rounded=1;whiteSpace=wrap;html=1;" vertex="1" parent="WIyWlLk6GJQsqaUBKTNV-1">
          <mxGeometry x="-950" y="130" width="120" height="60" as="geometry" />
        </mxCell>
        <mxCell id="EALIwOnRLja3VpjPiaSM-3" value="Maps Portal" style="rounded=1;whiteSpace=wrap;html=1;" vertex="1" parent="WIyWlLk6GJQsqaUBKTNV-1">
          <mxGeometry x="1420" y="130" width="120" height="60" as="geometry" />
        </mxCell>
        <mxCell id="EALIwOnRLja3VpjPiaSM-4" value="Reports Portal" style="rounded=1;whiteSpace=wrap;html=1;" vertex="1" parent="WIyWlLk6GJQsqaUBKTNV-1">
          <mxGeometry x="1040" y="140" width="120" height="60" as="geometry" />
        </mxCell>
        <mxCell id="EALIwOnRLja3VpjPiaSM-27" style="edgeStyle=orthogonalEdgeStyle;rounded=0;orthogonalLoop=1;jettySize=auto;html=1;entryX=0.5;entryY=0;entryDx=0;entryDy=0;" edge="1" parent="WIyWlLk6GJQsqaUBKTNV-1" source="EALIwOnRLja3VpjPiaSM-5" target="EALIwOnRLja3VpjPiaSM-24">
          <mxGeometry relative="1" as="geometry" />
        </mxCell>
        <mxCell id="EALIwOnRLja3VpjPiaSM-30" style="edgeStyle=orthogonalEdgeStyle;rounded=0;orthogonalLoop=1;jettySize=auto;html=1;" edge="1" parent="WIyWlLk6GJQsqaUBKTNV-1" source="EALIwOnRLja3VpjPiaSM-5" target="EALIwOnRLja3VpjPiaSM-23">
          <mxGeometry relative="1" as="geometry" />
        </mxCell>
        <mxCell id="EALIwOnRLja3VpjPiaSM-5" value="client-portal" style="rounded=1;whiteSpace=wrap;html=1;" vertex="1" parent="WIyWlLk6GJQsqaUBKTNV-1">
          <mxGeometry x="180" y="120" width="120" height="60" as="geometry" />
        </mxCell>
        <mxCell id="EALIwOnRLja3VpjPiaSM-51" value="" style="edgeStyle=orthogonalEdgeStyle;rounded=0;orthogonalLoop=1;jettySize=auto;html=1;" edge="1" parent="WIyWlLk6GJQsqaUBKTNV-1" source="EALIwOnRLja3VpjPiaSM-6" target="EALIwOnRLja3VpjPiaSM-21">
          <mxGeometry relative="1" as="geometry" />
        </mxCell>
        <mxCell id="EALIwOnRLja3VpjPiaSM-6" value="navigaton" style="rounded=1;whiteSpace=wrap;html=1;" vertex="1" parent="WIyWlLk6GJQsqaUBKTNV-1">
          <mxGeometry x="-570" y="130" width="120" height="60" as="geometry" />
        </mxCell>
        <mxCell id="EALIwOnRLja3VpjPiaSM-7" value="Home Portal" style="rounded=1;whiteSpace=wrap;html=1;" vertex="1" parent="WIyWlLk6GJQsqaUBKTNV-1">
          <mxGeometry x="-390" y="130" width="120" height="60" as="geometry" />
        </mxCell>
        <mxCell id="EALIwOnRLja3VpjPiaSM-17" value="search" style="rounded=1;whiteSpace=wrap;html=1;" vertex="1" parent="WIyWlLk6GJQsqaUBKTNV-1">
          <mxGeometry x="-1080" y="230" width="120" height="60" as="geometry" />
        </mxCell>
        <mxCell id="EALIwOnRLja3VpjPiaSM-18" value="user-info" style="rounded=1;whiteSpace=wrap;html=1;" vertex="1" parent="WIyWlLk6GJQsqaUBKTNV-1">
          <mxGeometry x="-950" y="230" width="120" height="60" as="geometry" />
        </mxCell>
        <mxCell id="EALIwOnRLja3VpjPiaSM-20" value="set-date" style="rounded=1;whiteSpace=wrap;html=1;" vertex="1" parent="WIyWlLk6GJQsqaUBKTNV-1">
          <mxGeometry x="-820" y="230" width="120" height="60" as="geometry" />
        </mxCell>
        <mxCell id="EALIwOnRLja3VpjPiaSM-21" value="nav-item" style="whiteSpace=wrap;html=1;rounded=1;" vertex="1" parent="WIyWlLk6GJQsqaUBKTNV-1">
          <mxGeometry x="-570" y="230" width="120" height="60" as="geometry" />
        </mxCell>
        <mxCell id="EALIwOnRLja3VpjPiaSM-35" style="edgeStyle=orthogonalEdgeStyle;rounded=0;orthogonalLoop=1;jettySize=auto;html=1;" edge="1" parent="WIyWlLk6GJQsqaUBKTNV-1" source="EALIwOnRLja3VpjPiaSM-23" target="EALIwOnRLja3VpjPiaSM-33">
          <mxGeometry relative="1" as="geometry" />
        </mxCell>
        <mxCell id="EALIwOnRLja3VpjPiaSM-36" style="edgeStyle=orthogonalEdgeStyle;rounded=0;orthogonalLoop=1;jettySize=auto;html=1;" edge="1" parent="WIyWlLk6GJQsqaUBKTNV-1" source="EALIwOnRLja3VpjPiaSM-23" target="EALIwOnRLja3VpjPiaSM-32">
          <mxGeometry relative="1" as="geometry" />
        </mxCell>
        <mxCell id="EALIwOnRLja3VpjPiaSM-37" style="edgeStyle=orthogonalEdgeStyle;rounded=0;orthogonalLoop=1;jettySize=auto;html=1;entryX=0.5;entryY=0;entryDx=0;entryDy=0;" edge="1" parent="WIyWlLk6GJQsqaUBKTNV-1" source="EALIwOnRLja3VpjPiaSM-23" target="EALIwOnRLja3VpjPiaSM-31">
          <mxGeometry relative="1" as="geometry" />
        </mxCell>
        <mxCell id="EALIwOnRLja3VpjPiaSM-38" style="edgeStyle=orthogonalEdgeStyle;rounded=0;orthogonalLoop=1;jettySize=auto;html=1;entryX=0.417;entryY=0;entryDx=0;entryDy=0;entryPerimeter=0;" edge="1" parent="WIyWlLk6GJQsqaUBKTNV-1" source="EALIwOnRLja3VpjPiaSM-23" target="EALIwOnRLja3VpjPiaSM-34">
          <mxGeometry relative="1" as="geometry" />
        </mxCell>
        <mxCell id="EALIwOnRLja3VpjPiaSM-40" style="edgeStyle=orthogonalEdgeStyle;rounded=0;orthogonalLoop=1;jettySize=auto;html=1;" edge="1" parent="WIyWlLk6GJQsqaUBKTNV-1" source="EALIwOnRLja3VpjPiaSM-23" target="EALIwOnRLja3VpjPiaSM-39">
          <mxGeometry relative="1" as="geometry" />
        </mxCell>
        <mxCell id="EALIwOnRLja3VpjPiaSM-23" value="client-profile" style="rounded=1;whiteSpace=wrap;html=1;" vertex="1" parent="WIyWlLk6GJQsqaUBKTNV-1">
          <mxGeometry x="500" y="230" width="120" height="60" as="geometry" />
        </mxCell>
        <mxCell id="EALIwOnRLja3VpjPiaSM-28" style="edgeStyle=orthogonalEdgeStyle;rounded=0;orthogonalLoop=1;jettySize=auto;html=1;" edge="1" parent="WIyWlLk6GJQsqaUBKTNV-1" source="EALIwOnRLja3VpjPiaSM-24" target="EALIwOnRLja3VpjPiaSM-26">
          <mxGeometry relative="1" as="geometry" />
        </mxCell>
        <mxCell id="EALIwOnRLja3VpjPiaSM-29" style="edgeStyle=orthogonalEdgeStyle;rounded=0;orthogonalLoop=1;jettySize=auto;html=1;" edge="1" parent="WIyWlLk6GJQsqaUBKTNV-1" source="EALIwOnRLja3VpjPiaSM-24" target="EALIwOnRLja3VpjPiaSM-25">
          <mxGeometry relative="1" as="geometry" />
        </mxCell>
        <mxCell id="EALIwOnRLja3VpjPiaSM-24" value="client-search" style="rounded=1;whiteSpace=wrap;html=1;" vertex="1" parent="WIyWlLk6GJQsqaUBKTNV-1">
          <mxGeometry x="-40" y="220" width="120" height="60" as="geometry" />
        </mxCell>
        <mxCell id="EALIwOnRLja3VpjPiaSM-25" value="client-search-results-list" style="rounded=1;whiteSpace=wrap;html=1;" vertex="1" parent="WIyWlLk6GJQsqaUBKTNV-1">
          <mxGeometry x="40" y="340" width="120" height="60" as="geometry" />
        </mxCell>
        <mxCell id="EALIwOnRLja3VpjPiaSM-26" value="client-search-form" style="rounded=1;whiteSpace=wrap;html=1;" vertex="1" parent="WIyWlLk6GJQsqaUBKTNV-1">
          <mxGeometry x="-120" y="340" width="120" height="60" as="geometry" />
        </mxCell>
        <mxCell id="EALIwOnRLja3VpjPiaSM-31" value="client-profile-case-notes" style="rounded=1;whiteSpace=wrap;html=1;" vertex="1" parent="WIyWlLk6GJQsqaUBKTNV-1">
          <mxGeometry x="640" y="360" width="120" height="60" as="geometry" />
        </mxCell>
        <mxCell id="EALIwOnRLja3VpjPiaSM-45" style="edgeStyle=orthogonalEdgeStyle;rounded=0;orthogonalLoop=1;jettySize=auto;html=1;" edge="1" parent="WIyWlLk6GJQsqaUBKTNV-1" source="EALIwOnRLja3VpjPiaSM-32" target="EALIwOnRLja3VpjPiaSM-41">
          <mxGeometry relative="1" as="geometry" />
        </mxCell>
        <mxCell id="EALIwOnRLja3VpjPiaSM-46" style="edgeStyle=orthogonalEdgeStyle;rounded=0;orthogonalLoop=1;jettySize=auto;html=1;" edge="1" parent="WIyWlLk6GJQsqaUBKTNV-1" source="EALIwOnRLja3VpjPiaSM-32" target="EALIwOnRLja3VpjPiaSM-42">
          <mxGeometry relative="1" as="geometry" />
        </mxCell>
        <mxCell id="EALIwOnRLja3VpjPiaSM-47" style="edgeStyle=orthogonalEdgeStyle;rounded=0;orthogonalLoop=1;jettySize=auto;html=1;" edge="1" parent="WIyWlLk6GJQsqaUBKTNV-1" source="EALIwOnRLja3VpjPiaSM-32" target="EALIwOnRLja3VpjPiaSM-43">
          <mxGeometry relative="1" as="geometry" />
        </mxCell>
        <mxCell id="EALIwOnRLja3VpjPiaSM-48" style="edgeStyle=orthogonalEdgeStyle;rounded=0;orthogonalLoop=1;jettySize=auto;html=1;" edge="1" parent="WIyWlLk6GJQsqaUBKTNV-1" source="EALIwOnRLja3VpjPiaSM-32" target="EALIwOnRLja3VpjPiaSM-44">
          <mxGeometry relative="1" as="geometry" />
        </mxCell>
        <mxCell id="EALIwOnRLja3VpjPiaSM-32" value="client-profile-overview" style="rounded=1;whiteSpace=wrap;html=1;" vertex="1" parent="WIyWlLk6GJQsqaUBKTNV-1">
          <mxGeometry x="370" y="480" width="120" height="60" as="geometry" />
        </mxCell>
        <mxCell id="EALIwOnRLja3VpjPiaSM-33" value="client-profile-nav-bar" style="rounded=1;whiteSpace=wrap;html=1;" vertex="1" parent="WIyWlLk6GJQsqaUBKTNV-1">
          <mxGeometry x="250" y="360" width="120" height="60" as="geometry" />
        </mxCell>
        <mxCell id="EALIwOnRLja3VpjPiaSM-34" value="client-profile-assessments" style="rounded=1;whiteSpace=wrap;html=1;" vertex="1" parent="WIyWlLk6GJQsqaUBKTNV-1">
          <mxGeometry x="770" y="360" width="120" height="60" as="geometry" />
        </mxCell>
        <mxCell id="EALIwOnRLja3VpjPiaSM-39" value="client-profile-map" style="rounded=1;whiteSpace=wrap;html=1;" vertex="1" parent="WIyWlLk6GJQsqaUBKTNV-1">
          <mxGeometry x="500" y="360" width="120" height="60" as="geometry" />
        </mxCell>
        <mxCell id="EALIwOnRLja3VpjPiaSM-41" value="client-profile-overview-demographics" style="rounded=1;whiteSpace=wrap;html=1;" vertex="1" parent="WIyWlLk6GJQsqaUBKTNV-1">
          <mxGeometry x="200" y="650" width="120" height="60" as="geometry" />
        </mxCell>
        <mxCell id="EALIwOnRLja3VpjPiaSM-42" value="client-profile-overview-contact-info" style="rounded=1;whiteSpace=wrap;html=1;" vertex="1" parent="WIyWlLk6GJQsqaUBKTNV-1">
          <mxGeometry x="330" y="650" width="120" height="60" as="geometry" />
        </mxCell>
        <mxCell id="EALIwOnRLja3VpjPiaSM-43" value="client-profile-overview-case-managers" style="rounded=1;whiteSpace=wrap;html=1;" vertex="1" parent="WIyWlLk6GJQsqaUBKTNV-1">
          <mxGeometry x="460" y="650" width="120" height="60" as="geometry" />
        </mxCell>
        <mxCell id="EALIwOnRLja3VpjPiaSM-44" value="client-profile-overview-picture&lt;br&gt;" style="rounded=1;whiteSpace=wrap;html=1;" vertex="1" parent="WIyWlLk6GJQsqaUBKTNV-1">
          <mxGeometry x="590" y="650" width="120" height="60" as="geometry" />
        </mxCell>
      </root>
    </mxGraphModel>
  </diagram>
</mxfile>
